{"title":"Dhanak Hindi 2016 DesiSCR x264-HDF.mp4","uid":15679747,"size":312522545,"categoryP":"video","categoryS":"movies","magnet":"?xt=urn:btih:2b71fb9c64db0faf0c290b53fb2e008c125ee403&amp;dn=Dhanak+Hindi+2016+DesiSCR+x264-HDF.mp4&amp;tr=udp%3A%2F%2Ftracker.leechers-paradise.org%3A6969&amp;tr=udp%3A%2F%2Fzer0day.ch%3A1337&amp;tr=udp%3A%2F%2Fopen.demonii.com%3A1337&amp;tr=udp%3A%2F%2Ftracker.coppersurfer.tk%3A6969&amp;tr=udp%3A%2F%2Fexodus.desync.com%3A6969","seeders":1,"leechers":0,"uploader":null,"files":1,"time":1472298012,"description":"http://www.movierulzfull.in/ presents:\r\n\r\nDhanak Hindi 2016 DesiSCR x264-HDF.mp4\r\n\r\nScreens:\r\n \nhttp://extraimago.com/images/2016/08/27/wSjP.png \nhttp://extraimago.com/images/2016/08/27/wSjX.png \nhttp://extraimago.com/images/2016/08/27/wSjg.png \nhttp://extraimago.com/images/2016/08/27/wSj5.png \nhttp://extraimago.com/images/2016/08/27/wSjD.png\r\n\r\nInfo:\r\n\r\nFormat : MPEG-4\r\nFormat profile : Base Media\r\nCodec ID : isom (isom/iso2/avc1/mp41)\r\nFile size : 298 MiB\r\nDuration : 1 h 48 min\r\nOverall bit rate : 385 kb/s\r\nWriting application : Lavf56.12.103\r\n\r\nVideo\r\nID : 1\r\nFormat : AVC\r\nFormat/Info : Advanced Video Codec\r\nFormat profile :   \r\nFormat settings, CABAC : Yes\r\nFormat settings, ReFrames : 4 frames\r\nCodec ID : avc1\r\nCodec ID/Info : Advanced Video Coding\r\nDuration : 1 h 48 min\r\nBit rate : 283 kb/s\r\nWidth : 576 pixels\r\nHeight : 244 pixels\r\nDisplay aspect ratio : 2.35:1\r\nOriginal display aspect ratio : 2.35:1\r\nFrame rate mode : Constant\r\nFrame rate : 25.000 FPS\r\nColor space : YUV\r\nChroma subsampling : 4:2:0\r\nBit depth : 8 bits\r\nScan type : Progressive\r\nBits/(Pixel*Frame) : 0.080\r\nStream size : 219 MiB (73%)\r\nWriting library : x264 core 142 r50 dd79a61\r\nEncoding settings : cabac=1 / ref=1 / deblock=1:0:0 / analyse=0x3:0x113 / me=hex / subme=2 / psy=1 / psy_rd=1.00:0.00 / mixed_ref=0 / me_range=16 / chroma_me=1 / trellis=0 / 8x8dct=1 / cqm=0 / deadzone=21,11 / fast_pskip=1 / chroma_qp_offset=0 / threads=12 / lookahead_threads=1 / sliced_threads=0 / nr=0 / decimate=1 / interlaced=0 / bluray_compat=0 / constrained_intra=0 / bframes=3 / b_pyramid=2 / b_adapt=1 / b_bias=0 / direct=1 / weightb=1 / open_gop=0 / weightp=1 / keyint=50 / keyint_min=5 / scenecut=40 / intra_refresh=0 / rc_lookahead=10 / rc=crf / mbtree=1 / crf=25.0 / qcomp=0.60 / qpmin=0 / qpmax=69 / qpstep=4 / ip_ratio=1.40 / aq=1:1.00\r\n\r\nAudio\r\nID : 2\r\nFormat : AAC\r\nFormat/Info : Advanced Audio Codec\r\nFormat profile : LC\r\nCodec ID : 40\r\nDuration : 1 h 48 min\r\nDuration_LastFrame : -10 ms\r\nBit rate mode : Constant\r\nBit rate : 96.0 kb/s\r\nChannel(s) : 2 channels\r\nChannel positions : Front: L R\r\nSampling rate : 44.1 kHz\r\nFrame rate : 43.066 FPS (1024 spf)\r\nCompression mode : Lossy\r\nStream size : 74.3 MiB (25%)\r\nDefault : Yes\r\nAlternate group : 1 \r\n \nhttp://www.movierulzfull.in/dhanak-full-movie-watch/\r\n \nhttp://tvmoviereviews.drupalgardens.com/content/dhanak-review","torrent":{"xt":"urn:btih:2b71fb9c64db0faf0c290b53fb2e008c125ee403","amp;dn":"Dhanak+Hindi+2016+DesiSCR+x264-HDF.mp4","amp;tr":["udp%3A%2F%2Ftracker.leechers-paradise.org%3A6969","udp%3A%2F%2Fzer0day.ch%3A1337","udp%3A%2F%2Fopen.demonii.com%3A1337","udp%3A%2F%2Ftracker.coppersurfer.tk%3A6969","udp%3A%2F%2Fexodus.desync.com%3A6969"],"infoHash":"2b71fb9c64db0faf0c290b53fb2e008c125ee403","infoHashBuffer":{"type":"Buffer","data":[43,113,251,156,100,219,15,175,12,41,11,83,251,46,0,140,18,94,228,3]},"announce":[],"urlList":[]}}